# MagicaVoxel @ Ephtracy

# material
mtllib Servant_oa.mtl
usemtl palette

# normals
vn -1 0 0
vn 1 0 0
vn 0 0 1
vn 0 0 -1
vn 0 -1 0
vn 0 1 0

# texcoords
vt 0.00195313 0.5
vt 0.0332031 0.5
vt 0.0371094 0.5
vt 0.0605469 0.5
vt 0.208984 0.5
vt 0.423828 0.5
vt 0.537109 0.5
vt 0.634766 0.5
vt 0.798828 0.5
vt 0.962891 0.5
vt 0.994141 0.5

# verts
v -5 4 0.5
v -5 4 -0.5
v -5 5 0.5
v -5 5 -0.5
v -3 6 1.5
v -3 6 -1.5
v -3 6 -2.5
v -3 7 2.5
v -3 7 1.5
v -3 7 -1.5
v -3 8 -1.5
v -3 8 -2.5
v -3 10 2.5
v -3 10 -1.5
v -2 0 0.5
v -2 0 -0.5
v -2 1 0.5
v -2 1 -0.5
v -2 2 1.5
v -2 2 0.5
v -2 2 -0.5
v -2 2 -1.5
v -2 4 1.5
v -2 4 0.5
v -2 4 -0.5
v -2 4 -1.5
v -2 5 1.5
v -2 5 0.5
v -2 5 -0.5
v -2 5 -1.5
v -2 6 2.5
v -2 6 1.5
v -2 6 0.5
v -2 6 -0.5
v -2 6 -1.5
v -2 6 -2.5
v -2 6 -3.5
v -2 7 2.5
v -2 7 1.5
v -2 8 -1.5
v -2 8 -2.5
v -2 8 -3.5
v -2 10 1.5
v -2 10 -1.5
v -2 10 -2.5
v -2 11 1.5
v -2 11 -1.5
v -1 8 -2.5
v -1 8 -3.5
v -1 10 -2.5
v -1 10 -3.5
v -1 11 0.5
v -1 11 -1.5
v -1 12 0.5
v -1 12 -1.5
v 1 0 0.5
v 1 0 -0.5
v 1 1 0.5
v 1 1 -0.5
v 1 2 0.5
v 1 2 -0.5
v -1 0 0.5
v -1 0 -0.5
v -1 1 0.5
v -1 1 -0.5
v -1 2 0.5
v -1 2 -0.5
v 1 8 -2.5
v 1 8 -3.5
v 1 10 -2.5
v 1 10 -3.5
v 1 11 0.5
v 1 11 -1.5
v 1 12 0.5
v 1 12 -1.5
v 2 0 0.5
v 2 0 -0.5
v 2 1 0.5
v 2 1 -0.5
v 2 2 1.5
v 2 2 0.5
v 2 2 -0.5
v 2 2 -1.5
v 2 4 1.5
v 2 4 0.5
v 2 4 -0.5
v 2 4 -1.5
v 2 5 1.5
v 2 5 0.5
v 2 5 -0.5
v 2 5 -1.5
v 2 6 2.5
v 2 6 1.5
v 2 6 0.5
v 2 6 -0.5
v 2 6 -1.5
v 2 6 -2.5
v 2 6 -3.5
v 2 7 2.5
v 2 7 1.5
v 2 8 -1.5
v 2 8 -2.5
v 2 8 -3.5
v 2 10 1.5
v 2 10 -1.5
v 2 10 -2.5
v 2 11 1.5
v 2 11 -1.5
v 3 6 1.5
v 3 6 -1.5
v 3 6 -2.5
v 3 7 2.5
v 3 7 1.5
v 3 7 -1.5
v 3 8 -1.5
v 3 8 -2.5
v 3 10 2.5
v 3 10 -1.5
v 5 4 0.5
v 5 4 -0.5
v 5 5 0.5
v 5 5 -0.5
v -3 7 2.5
v -3 10 2.5
v -2 6 2.5
v -2 7 2.5
v -2 8 2.5
v -1 7 2.5
v -1 8 2.5
v 0 6 2.5
v 0 7 2.5
v 1 7 2.5
v 1 8 2.5
v 2 6 2.5
v 2 7 2.5
v 2 8 2.5
v 3 7 2.5
v 3 10 2.5
v -3 6 1.5
v -3 7 1.5
v -2 2 1.5
v -2 4 1.5
v -2 5 1.5
v -2 6 1.5
v -2 7 1.5
v -2 10 1.5
v -2 11 1.5
v 0 6 1.5
v 2 2 1.5
v 2 4 1.5
v 2 5 1.5
v 2 6 1.5
v 2 7 1.5
v 2 10 1.5
v 2 11 1.5
v 3 6 1.5
v 3 7 1.5
v -5 4 0.5
v -5 5 0.5
v -4 4 0.5
v -4 5 0.5
v -3 4 0.5
v -3 5 0.5
v -2 0 0.5
v -2 1 0.5
v -2 2 0.5
v -2 4 0.5
v -2 5 0.5
v -1 0 0.5
v -1 1 0.5
v -1 2 0.5
v -1 11 0.5
v -1 12 0.5
v 1 0 0.5
v 1 1 0.5
v 1 2 0.5
v 1 11 0.5
v 1 12 0.5
v 2 0 0.5
v 2 1 0.5
v 2 2 0.5
v 2 4 0.5
v 2 5 0.5
v 3 4 0.5
v 3 5 0.5
v 4 4 0.5
v 4 5 0.5
v 5 4 0.5
v 5 5 0.5
v -5 4 -0.5
v -5 5 -0.5
v -4 4 -0.5
v -4 5 -0.5
v -3 4 -0.5
v -3 5 -0.5
v -2 0 -0.5
v -2 1 -0.5
v -2 2 -0.5
v -2 4 -0.5
v -2 5 -0.5
v -1 0 -0.5
v -1 1 -0.5
v -1 2 -0.5
v 1 0 -0.5
v 1 1 -0.5
v 1 2 -0.5
v 2 0 -0.5
v 2 1 -0.5
v 2 2 -0.5
v 2 4 -0.5
v 2 5 -0.5
v 3 4 -0.5
v 3 5 -0.5
v 4 4 -0.5
v 4 5 -0.5
v 5 4 -0.5
v 5 5 -0.5
v -3 8 -1.5
v -3 10 -1.5
v -2 2 -1.5
v -2 4 -1.5
v -2 5 -1.5
v -2 6 -1.5
v -2 8 -1.5
v -2 10 -1.5
v -2 11 -1.5
v -1 11 -1.5
v -1 12 -1.5
v 1 11 -1.5
v 1 12 -1.5
v 2 2 -1.5
v 2 4 -1.5
v 2 5 -1.5
v 2 6 -1.5
v 2 8 -1.5
v 2 10 -1.5
v 2 11 -1.5
v 3 8 -1.5
v 3 10 -1.5
v -3 6 -2.5
v -3 8 -2.5
v -2 6 -2.5
v -2 8 -2.5
v -2 10 -2.5
v -1 8 -2.5
v -1 10 -2.5
v 1 8 -2.5
v 1 10 -2.5
v 2 6 -2.5
v 2 8 -2.5
v 2 10 -2.5
v 3 6 -2.5
v 3 8 -2.5
v -2 6 -3.5
v -2 8 -3.5
v -1 8 -3.5
v -1 10 -3.5
v 1 8 -3.5
v 1 10 -3.5
v 2 6 -3.5
v 2 8 -3.5
v -2 0 0.5
v -1 0 0.5
v 1 0 0.5
v 2 0 0.5
v -2 0 -0.5
v -1 0 -0.5
v 1 0 -0.5
v 2 0 -0.5
v -2 2 1.5
v 2 2 1.5
v -2 2 0.5
v -1 2 0.5
v 1 2 0.5
v 2 2 0.5
v -2 2 -0.5
v -1 2 -0.5
v 1 2 -0.5
v 2 2 -0.5
v -2 2 -1.5
v 2 2 -1.5
v -5 4 0.5
v -4 4 0.5
v -3 4 0.5
v -2 4 0.5
v 2 4 0.5
v 3 4 0.5
v 4 4 0.5
v 5 4 0.5
v -5 4 -0.5
v -4 4 -0.5
v -3 4 -0.5
v -2 4 -0.5
v 2 4 -0.5
v 3 4 -0.5
v 4 4 -0.5
v 5 4 -0.5
v -2 6 2.5
v 0 6 2.5
v 2 6 2.5
v -3 6 1.5
v -2 6 1.5
v 0 6 1.5
v 2 6 1.5
v 3 6 1.5
v -2 6 0.5
v 2 6 0.5
v -2 6 -0.5
v 2 6 -0.5
v -3 6 -1.5
v -2 6 -1.5
v 2 6 -1.5
v 3 6 -1.5
v -3 6 -2.5
v -2 6 -2.5
v 2 6 -2.5
v 3 6 -2.5
v -2 6 -3.5
v 2 6 -3.5
v -3 7 2.5
v -2 7 2.5
v 2 7 2.5
v 3 7 2.5
v -3 7 1.5
v -2 7 1.5
v 2 7 1.5
v 3 7 1.5
v -5 5 0.5
v -4 5 0.5
v -3 5 0.5
v -2 5 0.5
v 2 5 0.5
v 3 5 0.5
v 4 5 0.5
v 5 5 0.5
v -5 5 -0.5
v -4 5 -0.5
v -3 5 -0.5
v -2 5 -0.5
v 2 5 -0.5
v 3 5 -0.5
v 4 5 -0.5
v 5 5 -0.5
v -3 8 -1.5
v -2 8 -1.5
v 2 8 -1.5
v 3 8 -1.5
v -3 8 -2.5
v -2 8 -2.5
v -1 8 -2.5
v 1 8 -2.5
v 2 8 -2.5
v 3 8 -2.5
v -2 8 -3.5
v -1 8 -3.5
v 1 8 -3.5
v 2 8 -3.5
v -3 10 2.5
v 3 10 2.5
v -2 10 1.5
v 2 10 1.5
v -3 10 -1.5
v -2 10 -1.5
v 2 10 -1.5
v 3 10 -1.5
v -2 10 -2.5
v -1 10 -2.5
v 1 10 -2.5
v 2 10 -2.5
v -1 10 -3.5
v 1 10 -3.5
v -2 11 1.5
v 2 11 1.5
v -1 11 0.5
v 1 11 0.5
v -2 11 -1.5
v -1 11 -1.5
v 1 11 -1.5
v 2 11 -1.5
v -1 12 0.5
v 1 12 0.5
v -1 12 -1.5
v 1 12 -1.5

# faces
f 3/4/1 2/4/1 1/4/1
f 4/4/1 2/4/1 3/4/1
f 9/7/1 6/7/1 5/7/1
f 10/5/1 7/5/1 6/5/1
f 10/7/1 6/7/1 9/7/1
f 11/5/1 9/5/1 8/5/1
f 11/5/1 7/5/1 10/5/1
f 11/5/1 10/5/1 9/5/1
f 12/5/1 7/5/1 11/5/1
f 13/5/1 11/5/1 8/5/1
f 14/5/1 11/5/1 13/5/1
f 17/4/1 16/4/1 15/4/1
f 18/4/1 16/4/1 17/4/1
f 20/10/1 18/10/1 17/10/1
f 21/10/1 18/10/1 20/10/1
f 23/9/1 21/9/1 20/9/1
f 23/9/1 22/9/1 21/9/1
f 23/9/1 20/9/1 19/9/1
f 24/9/1 22/9/1 23/9/1
f 25/9/1 22/9/1 24/9/1
f 26/9/1 22/9/1 25/9/1
f 27/6/1 24/6/1 23/6/1
f 28/6/1 24/6/1 27/6/1
f 29/6/1 26/6/1 25/6/1
f 30/6/1 26/6/1 29/6/1
f 32/1/1 28/1/1 27/1/1
f 33/6/1 29/6/1 28/6/1
f 33/1/1 28/1/1 32/1/1
f 34/1/1 30/1/1 29/1/1
f 34/6/1 29/6/1 33/6/1
f 35/1/1 30/1/1 34/1/1
f 38/4/1 32/4/1 31/4/1
f 39/4/1 32/4/1 38/4/1
f 41/5/1 37/5/1 36/5/1
f 42/5/1 37/5/1 41/5/1
f 44/5/1 41/5/1 40/5/1
f 45/5/1 41/5/1 44/5/1
f 46/5/1 44/5/1 43/5/1
f 47/5/1 44/5/1 46/5/1
f 50/5/1 49/5/1 48/5/1
f 51/5/1 49/5/1 50/5/1
f 54/5/1 53/5/1 52/5/1
f 55/5/1 53/5/1 54/5/1
f 58/4/1 57/4/1 56/4/1
f 59/4/1 57/4/1 58/4/1
f 60/10/1 59/10/1 58/10/1
f 61/10/1 59/10/1 60/10/1
f 62/4/2 63/4/2 64/4/2
f 64/4/2 63/4/2 65/4/2
f 64/10/2 65/10/2 66/10/2
f 66/10/2 65/10/2 67/10/2
f 68/5/2 69/5/2 70/5/2
f 70/5/2 69/5/2 71/5/2
f 72/5/2 73/5/2 74/5/2
f 74/5/2 73/5/2 75/5/2
f 76/4/2 77/4/2 78/4/2
f 78/4/2 77/4/2 79/4/2
f 78/10/2 79/10/2 81/10/2
f 81/10/2 79/10/2 82/10/2
f 81/9/2 82/9/2 84/9/2
f 82/9/2 83/9/2 84/9/2
f 80/9/2 81/9/2 84/9/2
f 84/9/2 83/9/2 85/9/2
f 85/9/2 83/9/2 86/9/2
f 86/9/2 83/9/2 87/9/2
f 84/6/2 85/6/2 88/6/2
f 88/6/2 85/6/2 89/6/2
f 86/6/2 87/6/2 90/6/2
f 90/6/2 87/6/2 91/6/2
f 88/1/2 89/1/2 93/1/2
f 89/6/2 90/6/2 94/6/2
f 93/1/2 89/1/2 94/1/2
f 90/1/2 91/1/2 95/1/2
f 94/6/2 90/6/2 95/6/2
f 95/1/2 91/1/2 96/1/2
f 92/2/2 93/2/2 99/2/2
f 99/2/2 93/2/2 100/2/2
f 97/5/2 98/5/2 102/5/2
f 102/5/2 98/5/2 103/5/2
f 101/5/2 102/5/2 105/5/2
f 105/5/2 102/5/2 106/5/2
f 104/5/2 105/5/2 107/5/2
f 107/5/2 105/5/2 108/5/2
f 109/7/2 110/7/2 113/7/2
f 110/5/2 111/5/2 114/5/2
f 113/7/2 110/7/2 114/7/2
f 112/5/2 113/5/2 115/5/2
f 114/5/2 111/5/2 115/5/2
f 113/5/2 114/5/2 115/5/2
f 115/5/2 111/5/2 116/5/2
f 112/5/2 115/5/2 117/5/2
f 117/5/2 115/5/2 118/5/2
f 119/4/2 120/4/2 121/4/2
f 121/4/2 120/4/2 122/4/2
f 126/5/3 124/5/3 123/5/3
f 127/5/3 124/5/3 126/5/3
f 128/4/3 126/4/3 125/4/3
f 128/11/3 127/11/3 126/11/3
f 129/5/3 124/5/3 127/5/3
f 129/11/3 127/11/3 128/11/3
f 130/4/3 128/4/3 125/4/3
f 131/2/3 129/2/3 128/2/3
f 131/4/3 128/4/3 130/4/3
f 132/2/3 131/2/3 130/2/3
f 132/2/3 129/2/3 131/2/3
f 133/5/3 124/5/3 129/5/3
f 133/2/3 129/2/3 132/2/3
f 134/2/3 132/2/3 130/2/3
f 135/11/3 133/11/3 132/11/3
f 135/2/3 132/2/3 134/2/3
f 136/5/3 124/5/3 133/5/3
f 136/11/3 133/11/3 135/11/3
f 137/5/3 136/5/3 135/5/3
f 138/5/3 124/5/3 136/5/3
f 138/5/3 136/5/3 137/5/3
f 144/7/3 140/7/3 139/7/3
f 145/7/3 140/7/3 144/7/3
f 148/1/3 144/1/3 143/1/3
f 149/9/3 142/9/3 141/9/3
f 150/6/3 143/6/3 142/6/3
f 150/9/3 142/9/3 149/9/3
f 151/1/3 148/1/3 143/1/3
f 151/6/3 143/6/3 150/6/3
f 152/1/3 148/1/3 151/1/3
f 154/5/3 147/5/3 146/5/3
f 155/5/3 147/5/3 154/5/3
f 156/7/3 153/7/3 152/7/3
f 157/7/3 153/7/3 156/7/3
f 160/4/3 159/4/3 158/4/3
f 161/4/3 159/4/3 160/4/3
f 162/1/3 161/1/3 160/1/3
f 163/1/3 161/1/3 162/1/3
f 167/3/3 163/3/3 162/3/3
f 168/3/3 163/3/3 167/3/3
f 169/4/3 165/4/3 164/4/3
f 170/10/3 166/10/3 165/10/3
f 170/4/3 165/4/3 169/4/3
f 171/10/3 166/10/3 170/10/3
f 177/5/3 173/5/3 172/5/3
f 178/5/3 173/5/3 177/5/3
f 179/4/3 175/4/3 174/4/3
f 180/10/3 176/10/3 175/10/3
f 180/4/3 175/4/3 179/4/3
f 181/10/3 176/10/3 180/10/3
f 184/3/3 183/3/3 182/3/3
f 185/3/3 183/3/3 184/3/3
f 186/1/3 185/1/3 184/1/3
f 187/1/3 185/1/3 186/1/3
f 188/4/3 187/4/3 186/4/3
f 189/4/3 187/4/3 188/4/3
f 190/4/4 191/4/4 192/4/4
f 192/4/4 191/4/4 193/4/4
f 192/1/4 193/1/4 194/1/4
f 194/1/4 193/1/4 195/1/4
f 194/3/4 195/3/4 199/3/4
f 199/3/4 195/3/4 200/3/4
f 196/4/4 197/4/4 201/4/4
f 197/10/4 198/10/4 202/10/4
f 201/4/4 197/4/4 202/4/4
f 202/10/4 198/10/4 203/10/4
f 204/4/4 205/4/4 207/4/4
f 205/10/4 206/10/4 208/10/4
f 207/4/4 205/4/4 208/4/4
f 208/10/4 206/10/4 209/10/4
f 210/3/4 211/3/4 212/3/4
f 212/3/4 211/3/4 213/3/4
f 212/1/4 213/1/4 214/1/4
f 214/1/4 213/1/4 215/1/4
f 214/4/4 215/4/4 216/4/4
f 216/4/4 215/4/4 217/4/4
f 218/5/4 219/5/4 224/5/4
f 224/5/4 219/5/4 225/5/4
f 225/5/4 226/5/4 227/5/4
f 225/5/4 227/5/4 229/5/4
f 227/5/4 228/5/4 229/5/4
f 229/5/4 228/5/4 230/5/4
f 220/9/4 221/9/4 231/9/4
f 221/6/4 222/6/4 232/6/4
f 231/9/4 221/9/4 232/9/4
f 222/1/4 223/1/4 233/1/4
f 232/6/4 222/6/4 233/6/4
f 233/1/4 223/1/4 234/1/4
f 225/5/4 229/5/4 236/5/4
f 236/5/4 229/5/4 237/5/4
f 235/5/4 236/5/4 238/5/4
f 238/5/4 236/5/4 239/5/4
f 240/5/4 241/5/4 242/5/4
f 242/5/4 241/5/4 243/5/4
f 243/5/4 244/5/4 245/5/4
f 245/5/4 244/5/4 246/5/4
f 247/5/4 248/5/4 250/5/4
f 250/5/4 248/5/4 251/5/4
f 249/5/4 250/5/4 252/5/4
f 252/5/4 250/5/4 253/5/4
f 254/5/4 255/5/4 256/5/4
f 254/5/4 256/5/4 258/5/4
f 256/5/4 257/5/4 258/5/4
f 258/5/4 257/5/4 259/5/4
f 254/5/4 258/5/4 260/5/4
f 260/5/4 258/5/4 261/5/4
f 266/4/5 263/4/5 262/4/5
f 267/4/5 263/4/5 266/4/5
f 268/4/5 265/4/5 264/4/5
f 269/4/5 265/4/5 268/4/5
f 272/9/5 271/9/5 270/9/5
f 273/9/5 271/9/5 272/9/5
f 274/9/5 271/9/5 273/9/5
f 275/9/5 271/9/5 274/9/5
f 277/9/5 274/9/5 273/9/5
f 278/9/5 274/9/5 277/9/5
f 280/9/5 277/9/5 276/9/5
f 280/9/5 279/9/5 278/9/5
f 280/9/5 278/9/5 277/9/5
f 281/9/5 279/9/5 280/9/5
f 290/4/5 283/4/5 282/4/5
f 291/1/5 284/1/5 283/1/5
f 291/4/5 283/4/5 290/4/5
f 292/3/5 285/3/5 284/3/5
f 292/1/5 284/1/5 291/1/5
f 293/3/5 285/3/5 292/3/5
f 294/3/5 287/3/5 286/3/5
f 295/1/5 288/1/5 287/1/5
f 295/3/5 287/3/5 294/3/5
f 296/4/5 289/4/5 288/4/5
f 296/1/5 288/1/5 295/1/5
f 297/4/5 289/4/5 296/4/5
f 302/4/5 299/4/5 298/4/5
f 303/2/5 300/2/5 299/2/5
f 303/4/5 299/4/5 302/4/5
f 304/2/5 300/2/5 303/2/5
f 306/7/5 302/7/5 301/7/5
f 307/7/5 305/7/5 304/7/5
f 308/7/5 306/7/5 301/7/5
f 309/7/5 305/7/5 307/7/5
f 310/7/5 308/7/5 301/7/5
f 311/7/5 308/7/5 310/7/5
f 312/7/5 305/7/5 309/7/5
f 313/7/5 305/7/5 312/7/5
f 314/5/5 311/5/5 310/5/5
f 315/7/5 312/7/5 311/7/5
f 315/5/5 311/5/5 314/5/5
f 316/5/5 313/5/5 312/5/5
f 316/7/5 312/7/5 315/7/5
f 317/5/5 313/5/5 316/5/5
f 318/5/5 316/5/5 315/5/5
f 319/5/5 316/5/5 318/5/5
f 324/5/5 321/5/5 320/5/5
f 325/5/5 321/5/5 324/5/5
f 326/5/5 323/5/5 322/5/5
f 327/5/5 323/5/5 326/5/5
f 328/4/6 329/4/6 336/4/6
f 329/1/6 330/1/6 337/1/6
f 336/4/6 329/4/6 337/4/6
f 330/3/6 331/3/6 338/3/6
f 337/1/6 330/1/6 338/1/6
f 338/3/6 331/3/6 339/3/6
f 332/3/6 333/3/6 340/3/6
f 333/1/6 334/1/6 341/1/6
f 340/3/6 333/3/6 341/3/6
f 334/4/6 335/4/6 342/4/6
f 341/1/6 334/1/6 342/1/6
f 342/4/6 335/4/6 343/4/6
f 344/5/6 345/5/6 348/5/6
f 348/5/6 345/5/6 349/5/6
f 346/5/6 347/5/6 352/5/6
f 352/5/6 347/5/6 353/5/6
f 349/5/6 350/5/6 354/5/6
f 354/5/6 350/5/6 355/5/6
f 351/5/6 352/5/6 356/5/6
f 356/5/6 352/5/6 357/5/6
f 358/5/6 359/5/6 360/5/6
f 360/5/6 359/5/6 361/5/6
f 358/5/6 360/5/6 362/5/6
f 362/5/6 360/5/6 363/5/6
f 361/5/6 359/5/6 364/5/6
f 364/5/6 359/5/6 365/5/6
f 363/5/6 364/5/6 366/5/6
f 366/5/6 364/5/6 367/5/6
f 367/5/6 364/5/6 368/5/6
f 368/5/6 364/5/6 369/5/6
f 367/5/6 368/5/6 370/5/6
f 370/5/6 368/5/6 371/5/6
f 372/5/6 373/5/6 374/5/6
f 374/5/6 373/5/6 375/5/6
f 372/5/6 374/5/6 376/5/6
f 376/5/6 374/5/6 377/5/6
f 375/5/6 373/5/6 378/5/6
f 378/5/6 373/5/6 379/5/6
f 380/5/6 381/5/6 382/5/6
f 382/5/6 381/5/6 383/5/6
